<svg width="16" height="18" viewBox="0 0 16 18" fill="none" xmlns="http://www.w3.org/2000/svg">
<path d="M8 10V10.01M6 13V13.01M10 13V13.01M3.5 5H12.5L12.219 2.752C12.1585 2.26821 11.9234 1.82316 11.5579 1.50052C11.1924 1.17789 10.7216 0.999894 10.234 1H5.766C5.27827 0.99965 4.80722 1.17754 4.44147 1.50019C4.07572 1.82285 3.84048 2.26803 3.78 2.752L3.5 5Z" stroke="#666666" stroke-width="2" stroke-linecap="round" stroke-linejoin="round"/>
<path d="M3.5 5L1.888 14.671C1.84021 14.9575 1.85542 15.2511 1.93257 15.5311C2.00972 15.8112 2.14695 16.0711 2.33473 16.2928C2.52251 16.5144 2.75631 16.6925 3.0199 16.8146C3.28348 16.9368 3.5705 17 3.861 17H12.139C12.4295 17 12.7165 16.9368 12.9801 16.8146C13.2437 16.6925 13.4775 16.5144 13.6653 16.2928C13.853 16.0711 13.9903 15.8112 14.0674 15.5311C14.1446 15.2511 14.1598 14.9575 14.112 14.671L12.5 5" stroke="#666666" stroke-width="2" stroke-linecap="round" stroke-linejoin="round"/>
</svg>
