<svg width="309" height="90" viewBox="0 0 309 90" fill="none" xmlns="http://www.w3.org/2000/svg">
<path d="M297.483 89.3677H11.4416C5.1516 89.3677 0 84.338 0 78.1967V11.171C0 5.02976 5.1516 3.39665e-05 11.4416 3.39665e-05H297.483C303.773 3.39665e-05 308.924 5.02976 308.924 11.171V78.1967C308.924 84.338 303.773 89.3677 297.483 89.3677Z" fill="black"/>
<path d="M297.483 1.79017C302.78 1.79017 307.091 5.99884 307.091 11.171V78.1967C307.091 83.3689 302.78 87.5775 297.483 87.5775H11.4416C6.14416 87.5775 1.83352 83.3689 1.83352 78.1967V11.171C1.83352 5.99884 6.14416 1.79017 11.4416 1.79017H297.483ZM297.483 3.39665e-05H11.4416C5.1516 3.39665e-05 0 5.02976 0 11.171V78.1967C0 84.338 5.1516 89.3677 11.4416 89.3677H297.483C303.773 89.3677 308.924 84.338 308.924 78.1967V11.171C308.924 5.02976 303.773 3.39665e-05 297.483 3.39665e-05Z" fill="#A6A6A6"/>
<path d="M108.507 22.8867C108.507 24.7522 107.935 26.2463 106.808 27.3606C105.512 28.6816 103.824 29.3463 101.756 29.3463C99.7797 29.3463 98.0921 28.6704 96.7076 27.3383C95.3203 25.9866 94.6281 24.3277 94.6281 22.3421C94.6281 20.3564 95.3203 18.6976 96.7076 17.357C98.0921 16.0137 99.7797 15.3379 101.756 15.3379C102.74 15.3379 103.678 15.5362 104.574 15.9048C105.466 16.2763 106.193 16.7789 106.719 17.3989L105.523 18.5775C104.605 17.519 103.355 16.9968 101.756 16.9968C100.315 16.9968 99.0646 17.4883 98.0034 18.4797C96.9536 19.4739 96.4273 20.7614 96.4273 22.3421C96.4273 23.9228 96.9536 25.2214 98.0034 26.2156C99.0646 27.1959 100.315 27.6986 101.756 27.6986C103.287 27.6986 104.574 27.1959 105.589 26.2044C106.259 25.5481 106.639 24.6433 106.739 23.4871H101.756V21.8729H108.404C108.484 22.222 108.507 22.5599 108.507 22.8867Z" fill="white" stroke="white" stroke-width="0.242353" stroke-miterlimit="10"/>
<path d="M119.053 17.2897H112.809V21.5347H118.438V23.1489H112.809V27.3938H119.053V29.0387H111.041V15.6448H119.053V17.2897Z" fill="white" stroke="white" stroke-width="0.242353" stroke-miterlimit="10"/>
<path d="M126.496 29.0387H124.728V17.2897H120.898V15.6448H130.329V17.2897H126.496V29.0387Z" fill="white" stroke="white" stroke-width="0.242353" stroke-miterlimit="10"/>
<path d="M137.154 29.0387V15.6448H138.919V29.0387H137.154Z" fill="white" stroke="white" stroke-width="0.242353" stroke-miterlimit="10"/>
<path d="M146.742 29.0387H144.988V17.2897H141.144V15.6448H150.586V17.2897H146.742V29.0387Z" fill="white" stroke="white" stroke-width="0.242353" stroke-miterlimit="10"/>
<path d="M168.441 27.3159C167.088 28.6704 165.412 29.3463 163.412 29.3463C161.402 29.3463 159.725 28.6704 158.372 27.3159C157.022 25.9643 156.35 24.3054 156.35 22.3421C156.35 20.3788 157.022 18.7199 158.372 17.3682C159.725 16.0137 161.402 15.3379 163.412 15.3379C165.4 15.3379 167.077 16.0137 168.43 17.3794C169.791 18.7422 170.463 20.39 170.463 22.3421C170.463 24.3054 169.791 25.9643 168.441 27.3159ZM159.68 26.1933C160.698 27.1959 161.936 27.6986 163.412 27.6986C164.877 27.6986 166.127 27.1959 167.134 26.1933C168.149 25.1907 168.664 23.9032 168.664 22.3421C168.664 20.7809 168.149 19.4935 167.134 18.4909C166.127 17.4883 164.877 16.9856 163.412 16.9856C161.936 16.9856 160.698 17.4883 159.68 18.4909C158.664 19.4935 158.149 20.7809 158.149 22.3421C158.149 23.9032 158.664 25.1907 159.68 26.1933Z" fill="white" stroke="white" stroke-width="0.242353" stroke-miterlimit="10"/>
<path d="M172.943 29.0387V15.6448H175.089L181.759 26.0617H181.836L181.759 23.4868V15.6448H183.524V29.0387H181.682L174.697 18.108H174.619L174.697 20.694V29.0387H172.943Z" fill="white" stroke="white" stroke-width="0.242353" stroke-miterlimit="10"/>
<path d="M155.915 48.5993C150.54 48.5993 146.15 52.593 146.15 58.103C146.15 63.5684 150.54 67.6039 155.915 67.6039C161.301 67.6039 165.692 63.5684 165.692 58.103C165.692 52.593 161.301 48.5993 155.915 48.5993ZM155.915 63.8617C152.966 63.8617 150.429 61.485 150.429 58.103C150.429 54.6763 152.966 52.3416 155.915 52.3416C158.864 52.3416 161.413 54.6763 161.413 58.103C161.413 61.485 158.864 63.8617 155.915 63.8617ZM134.608 48.5993C129.222 48.5993 124.843 52.593 124.843 58.103C124.843 63.5684 129.222 67.6039 134.608 67.6039C139.991 67.6039 144.373 63.5684 144.373 58.103C144.373 52.593 139.991 48.5993 134.608 48.5993ZM134.608 63.8617C131.656 63.8617 129.11 61.485 129.11 58.103C129.11 54.6763 131.656 52.3416 134.608 52.3416C137.557 52.3416 140.094 54.6763 140.094 58.103C140.094 61.485 137.557 63.8617 134.608 63.8617ZM109.253 51.5122V55.5505H119.13C118.841 57.807 118.069 59.4659 116.885 60.6221C115.443 62.0185 113.198 63.5684 109.253 63.5684C103.175 63.5684 98.4152 58.7789 98.4152 52.8443C98.4152 46.9097 103.175 42.1202 109.253 42.1202C112.54 42.1202 114.931 43.3741 116.696 44.9995L119.611 42.1537C117.142 39.8525 113.859 38.0847 109.253 38.0847C100.918 38.0847 93.913 44.7063 93.913 52.8443C93.913 60.9823 100.918 67.6039 109.253 67.6039C113.758 67.6039 117.142 66.1629 119.803 63.4595C122.528 60.798 123.378 57.0558 123.378 54.034C123.378 53.0956 123.298 52.2327 123.155 51.5122H109.253ZM212.932 54.6428C212.128 52.5176 209.648 48.5993 204.597 48.5993C199.591 48.5993 195.423 52.4505 195.423 58.103C195.423 63.426 199.548 67.6039 205.077 67.6039C209.548 67.6039 212.128 64.9424 213.189 63.3925L209.871 61.2337C208.764 62.8144 207.257 63.8617 205.077 63.8617C202.912 63.8617 201.359 62.8926 200.363 60.9823L213.381 55.7236L212.932 54.6428ZM199.659 57.807C199.548 54.1429 202.574 52.2662 204.742 52.2662C206.441 52.2662 207.883 53.0957 208.364 54.2826L199.659 57.807ZM189.079 67.0258H193.358V39.0984H189.079V67.0258ZM182.071 50.7162H181.928C180.967 49.6047 179.133 48.5993 176.81 48.5993C171.936 48.5993 167.48 52.7773 167.48 58.1338C167.48 63.4595 171.936 67.6039 176.81 67.6039C179.133 67.6039 180.967 66.5902 181.928 65.4451H182.071V66.808C182.071 70.4414 180.083 72.3935 176.876 72.3935C174.262 72.3935 172.64 70.5503 171.971 69.0003L168.249 70.5168C169.322 73.0358 172.162 76.1357 176.876 76.1357C181.893 76.1357 186.127 73.2536 186.127 66.2411V49.1774H182.071V50.7162ZM177.177 63.8617C174.228 63.8617 171.759 61.4515 171.759 58.1338C171.759 54.7853 174.228 52.3416 177.177 52.3416C180.083 52.3416 182.374 54.7853 182.374 58.1338C182.374 61.4515 180.083 63.8617 177.177 63.8617ZM232.966 39.0984H222.731V67.0258H226.999V56.4441H232.966C237.706 56.4441 242.354 53.0956 242.354 47.7699C242.354 42.4469 237.694 39.0984 232.966 39.0984ZM233.078 52.5594H226.999V42.9831H233.078C236.264 42.9831 238.083 45.5664 238.083 47.7699C238.083 49.9315 236.264 52.5594 233.078 52.5594ZM259.459 48.5463C256.376 48.5463 253.169 49.8756 251.85 52.822L255.638 54.3719C256.453 52.822 257.952 52.3193 259.536 52.3193C261.75 52.3193 263.996 53.6179 264.03 55.9107V56.204C263.258 55.7683 261.604 55.1232 259.571 55.1232C255.492 55.1232 251.336 57.3155 251.336 61.4068C251.336 65.1491 254.677 67.5592 258.432 67.5592C261.304 67.5592 262.889 66.2941 263.884 64.8224H264.03V66.9811H268.152V56.2682C268.152 51.3167 264.365 48.5463 259.459 48.5463ZM258.944 63.8505C257.548 63.8505 255.603 63.1746 255.603 61.485C255.603 59.3235 258.029 58.494 260.128 58.494C262.008 58.494 262.889 58.899 264.03 59.4324C263.695 62.0185 261.416 63.8505 258.944 63.8505ZM283.169 49.1579L278.263 61.2644H278.118L273.046 49.1579H268.444L276.064 66.0763L271.716 75.4906H276.175L287.917 49.1579H283.169ZM244.699 67.0258H248.979V39.0984H244.699V67.0258Z" fill="white"/>
<path d="M23.8787 16.8431C23.2065 17.5302 22.8175 18.5998 22.8175 19.985V69.3941C22.8175 70.7793 23.2065 71.8489 23.8787 72.536L24.0447 72.6868L52.4027 45.0107V44.3572L24.0447 16.6812L23.8787 16.8431Z" fill="url(#paint0_linear_6_136)"/>
<path d="M61.8449 54.2407L52.4027 45.0107V44.3572L61.8563 35.1272L62.068 35.2473L73.2636 41.4667C76.4587 43.2317 76.4587 46.1362 73.2636 47.9124L62.068 54.1206L61.8449 54.2407Z" fill="url(#paint1_linear_6_136)"/>
<path d="M62.068 54.1206L52.4027 44.6839L23.8787 72.5359C24.9399 73.6251 26.6704 73.7564 28.6384 72.6672L62.068 54.1206Z" fill="url(#paint2_linear_6_136)"/>
<path d="M62.068 35.2472L28.6384 16.7006C26.6704 15.6226 24.9399 15.7539 23.8787 16.843L52.4027 44.6838L62.068 35.2472Z" fill="url(#paint3_linear_6_136)"/>
<defs>
<linearGradient id="paint0_linear_6_136" x1="49.8849" y1="69.9087" x2="12.4006" y2="31.516" gradientUnits="userSpaceOnUse">
<stop stop-color="#00A0FF"/>
<stop offset="0.0066" stop-color="#00A1FF"/>
<stop offset="0.2601" stop-color="#00BEFF"/>
<stop offset="0.5122" stop-color="#00D2FF"/>
<stop offset="0.7604" stop-color="#00DFFF"/>
<stop offset="1" stop-color="#00E3FF"/>
</linearGradient>
<linearGradient id="paint1_linear_6_136" x1="77.4242" y1="44.6808" x2="22.0537" y2="44.6808" gradientUnits="userSpaceOnUse">
<stop stop-color="#FFE000"/>
<stop offset="0.4087" stop-color="#FFBD00"/>
<stop offset="0.7754" stop-color="#FFA500"/>
<stop offset="1" stop-color="#FF9C00"/>
</linearGradient>
<linearGradient id="paint2_linear_6_136" x1="56.8123" y1="39.554" x2="5.98046" y2="-12.5095" gradientUnits="userSpaceOnUse">
<stop stop-color="#FF3A44"/>
<stop offset="1" stop-color="#C31162"/>
</linearGradient>
<linearGradient id="paint3_linear_6_136" x1="16.6986" y1="88.974" x2="39.3973" y2="65.7255" gradientUnits="userSpaceOnUse">
<stop stop-color="#32A071"/>
<stop offset="0.0685" stop-color="#2DA771"/>
<stop offset="0.4762" stop-color="#15CF74"/>
<stop offset="0.8009" stop-color="#06E775"/>
<stop offset="1" stop-color="#00F076"/>
</linearGradient>
</defs>
</svg>
