<svg width="310" height="90" viewBox="0 0 310 90" fill="none" xmlns="http://www.w3.org/2000/svg">
<path d="M307.631 79.0613C307.631 83.8238 303.693 87.6816 298.822 87.6816H10.5392C5.67055 87.6816 1.71861 83.8238 1.71861 79.0613V10.3178C1.71861 5.55751 5.67055 1.68628 10.5392 1.68628H298.819C303.693 1.68628 307.629 5.55751 307.629 10.3178L307.631 79.0613Z" fill="black"/>
<path d="M297.892 1.79017C303.197 1.79017 307.513 5.99884 307.513 11.171V78.1967C307.513 83.3689 303.197 87.5775 297.892 87.5775H11.4574C6.15261 87.5775 1.83604 83.3689 1.83604 78.1967V11.171C1.83604 5.99884 6.15261 1.79017 11.4574 1.79017H297.892ZM297.892 3.39665e-05H11.4574C5.15868 3.39665e-05 -8.10623e-06 5.02976 -8.10623e-06 11.171V78.1967C-8.10623e-06 84.338 5.15868 89.3677 11.4574 89.3677H297.892C304.191 89.3677 309.35 84.338 309.35 78.1967V11.171C309.35 5.02976 304.191 3.39665e-05 297.892 3.39665e-05Z" fill="#A6A6A6"/>
<path d="M69.0377 44.2014C68.9712 37.0006 75.0849 33.4974 75.3644 33.3343C71.902 28.4124 66.5354 27.7399 64.6495 27.6863C60.1421 27.2238 55.77 30.3159 53.4739 30.3159C51.1321 30.3159 47.5963 27.7309 43.7856 27.8069C38.8818 27.8806 34.2943 30.6488 31.7782 34.9474C26.5857 43.7121 30.4583 56.5922 35.4331 63.6768C37.9217 67.1465 40.8296 71.0206 44.6357 70.8843C48.3594 70.7346 49.7503 68.5697 54.2439 68.5697C58.6962 68.5697 60.0024 70.8843 63.8841 70.7972C67.8805 70.7346 70.3965 67.3119 72.798 63.8109C75.6738 59.834 76.8287 55.9175 76.8745 55.7164C76.7806 55.6851 69.1133 52.8321 69.0377 44.2014Z" fill="white"/>
<path d="M61.7049 23.0257C63.7077 20.5838 65.078 17.2615 64.6976 13.8901C61.7989 14.0153 58.1738 15.8451 56.0862 18.2334C54.2393 20.338 52.5894 23.7876 53.0156 27.0316C56.2718 27.2685 59.6151 25.4297 61.7049 23.0257Z" fill="white"/>
<path d="M122.926 70.3859H117.722L114.872 61.6525H104.963L102.248 70.3859H97.1816L106.998 40.6533H113.061L122.926 70.3859ZM114.012 57.9884L111.435 50.2246C111.162 49.4315 110.651 47.5637 109.897 44.6235H109.805C109.505 45.888 109.022 47.7558 108.357 50.2246L105.825 57.9884H114.012Z" fill="white"/>
<path d="M148.172 59.4025C148.172 63.0487 147.161 65.9308 145.14 68.0466C143.33 69.93 141.082 70.8706 138.398 70.8706C135.502 70.8706 133.421 69.8563 132.154 67.8276H132.062V79.1215H127.177V56.0043C127.177 53.712 127.115 51.3594 126.996 48.9465H131.292L131.565 52.3447H131.657C133.286 49.7843 135.759 48.5063 139.077 48.5063C141.671 48.5063 143.836 49.505 145.568 51.5046C147.305 53.5065 148.172 56.1383 148.172 59.4025ZM143.194 59.5768C143.194 57.49 142.713 55.7697 141.746 54.4158C140.69 53.0038 139.271 52.2978 137.493 52.2978C136.288 52.2978 135.193 52.691 134.214 53.4662C133.233 54.2482 132.592 55.2692 132.292 56.5338C132.14 57.1236 132.065 57.6062 132.065 57.986V61.5607C132.065 63.1202 132.555 64.4361 133.536 65.5108C134.517 66.5854 135.791 67.1216 137.358 67.1216C139.198 67.1216 140.63 66.429 141.655 65.0483C142.681 63.6653 143.194 61.8422 143.194 59.5768Z" fill="white"/>
<path d="M173.463 59.4025C173.463 63.0487 172.452 65.9308 170.429 68.0466C168.621 69.93 166.373 70.8706 163.689 70.8706C160.793 70.8706 158.712 69.8563 157.447 67.8276H157.356V79.1215H152.47V56.0043C152.47 53.712 152.408 51.3594 152.289 48.9465H156.586L156.859 52.3447H156.95C158.577 49.7843 161.05 48.5063 164.37 48.5063C166.962 48.5063 169.127 49.505 170.864 51.5046C172.594 53.5065 173.463 56.1383 173.463 59.4025ZM168.486 59.5768C168.486 57.49 168.002 55.7697 167.035 54.4158C165.979 53.0038 164.565 52.2978 162.784 52.2978C161.577 52.2978 160.484 52.691 159.503 53.4662C158.522 54.2482 157.883 55.2692 157.583 56.5338C157.434 57.1236 157.356 57.6062 157.356 57.986V61.5607C157.356 63.1202 157.846 64.4361 158.822 65.5108C159.803 66.5832 161.077 67.1216 162.649 67.1216C164.489 67.1216 165.921 66.429 166.946 65.0483C167.972 63.6653 168.486 61.8422 168.486 59.5768Z" fill="white"/>
<path d="M201.739 62.0481C201.739 64.5772 200.839 66.6349 199.031 68.2234C197.044 69.9593 194.278 70.8262 190.724 70.8262C187.443 70.8262 184.812 70.2096 182.821 68.9741L183.953 65.0039C186.098 66.2684 188.451 66.903 191.015 66.903C192.855 66.903 194.288 66.4963 195.316 65.6876C196.341 64.8788 196.852 63.793 196.852 62.439C196.852 61.2326 196.43 60.216 195.584 59.3916C194.744 58.5672 193.339 57.8009 191.377 57.0926C186.038 55.1511 183.371 52.307 183.371 48.5669C183.371 46.1227 184.306 44.1187 186.178 42.5592C188.043 40.9975 190.532 40.2178 193.644 40.2178C196.419 40.2178 198.724 40.6892 200.564 41.6298L199.343 45.5128C197.624 44.6013 195.681 44.1455 193.506 44.1455C191.788 44.1455 190.445 44.5588 189.482 45.381C188.669 46.116 188.261 47.012 188.261 48.0732C188.261 49.2484 188.726 50.2202 189.661 50.9843C190.474 51.6903 191.953 52.4544 194.097 53.2789C196.721 54.3088 198.648 55.513 199.888 56.8938C201.123 58.27 201.739 59.9926 201.739 62.0481Z" fill="white"/>
<path d="M217.892 52.5214H212.507V62.9305C212.507 65.578 213.456 66.9007 215.358 66.9007C216.231 66.9007 216.955 66.8269 217.528 66.6795L217.663 70.2966C216.7 70.6474 215.433 70.8239 213.864 70.8239C211.934 70.8239 210.426 70.2497 209.338 69.1036C208.254 67.9552 207.709 66.0293 207.709 63.3237V52.5169H204.501V48.9422H207.709V45.0167L212.507 43.6047V48.9422H217.892V52.5214Z" fill="white"/>
<path d="M242.189 59.4898C242.189 62.7853 241.222 65.4909 239.292 67.6067C237.269 69.785 234.583 70.8708 231.235 70.8708C228.009 70.8708 225.44 69.8274 223.524 67.7407C221.609 65.654 220.651 63.0199 220.651 59.8451C220.651 56.5228 221.636 53.8016 223.614 51.6858C225.587 49.5678 228.249 48.5088 231.597 48.5088C234.824 48.5088 237.42 49.5522 239.379 51.6411C241.254 53.6675 242.189 56.2838 242.189 59.4898ZM237.12 59.644C237.12 57.6667 236.687 55.971 235.809 54.5567C234.785 52.8454 233.321 51.9919 231.423 51.9919C229.459 51.9919 227.968 52.8476 226.943 54.5567C226.066 55.9732 225.633 57.6958 225.633 59.7334C225.633 61.7106 226.066 63.4064 226.943 64.8184C228 66.5298 229.475 67.3832 231.38 67.3832C233.245 67.3832 234.709 66.5119 235.766 64.7737C236.666 63.3326 237.12 61.619 237.12 59.644Z" fill="white"/>
<path d="M258.069 53.1356C257.585 53.0485 257.069 53.0038 256.529 53.0038C254.81 53.0038 253.481 53.636 252.546 54.9028C251.733 56.0199 251.325 57.4319 251.325 59.1366V70.3858H246.442L246.487 55.6982C246.487 53.2272 246.426 50.9774 246.304 48.9487H250.559L250.738 53.0507H250.873C251.389 51.6409 252.202 50.5059 253.316 49.6547C254.404 48.8884 255.58 48.5063 256.847 48.5063C257.299 48.5063 257.707 48.5376 258.069 48.5935V53.1356Z" fill="white"/>
<path d="M279.918 58.6522C279.918 59.5057 279.86 60.2251 279.739 60.8127H265.083C265.14 62.9307 265.848 64.5505 267.209 65.6676C268.444 66.6663 270.041 67.1667 272.003 67.1667C274.173 67.1667 276.153 66.8294 277.933 66.1524L278.699 69.459C276.618 70.3438 274.162 70.7839 271.327 70.7839C267.917 70.7839 265.241 69.8053 263.293 67.8504C261.35 65.8955 260.376 63.2703 260.376 59.9771C260.376 56.7442 261.281 54.052 263.094 51.905C264.991 49.6127 267.555 48.4666 270.782 48.4666C273.951 48.4666 276.35 49.6127 277.979 51.905C279.269 53.7258 279.918 55.9779 279.918 58.6522ZM275.259 57.4167C275.291 56.0047 274.973 54.7848 274.311 53.7549C273.465 52.43 272.166 51.7687 270.417 51.7687C268.82 51.7687 267.521 52.4144 266.529 53.7102C265.715 54.7402 265.232 55.9757 265.083 57.4145H275.259V57.4167Z" fill="white"/>
<path d="M112.397 22.3622C112.397 24.9918 111.588 26.9713 109.973 28.3006C108.476 29.5272 106.35 30.1416 103.595 30.1416C102.23 30.1416 101.061 30.0835 100.083 29.9673V15.5993C101.359 15.3982 102.734 15.2954 104.219 15.2954C106.842 15.2954 108.82 15.8517 110.154 16.9644C111.648 18.2222 112.397 20.0207 112.397 22.3622ZM109.865 22.4269C109.865 20.7223 109.402 19.4153 108.476 18.5037C107.551 17.5944 106.199 17.1386 104.418 17.1386C103.662 17.1386 103.018 17.1878 102.484 17.2905V28.2135C102.78 28.2582 103.32 28.2783 104.106 28.2783C105.944 28.2783 107.363 27.7801 108.362 26.7836C109.361 25.7872 109.865 24.3349 109.865 22.4269Z" fill="white"/>
<path d="M125.823 24.659C125.823 26.2787 125.348 27.6059 124.4 28.647C123.405 29.7172 122.088 30.2511 120.442 30.2511C118.857 30.2511 117.594 29.7395 116.652 28.7118C115.713 27.6863 115.243 26.3927 115.243 24.8332C115.243 23.2023 115.727 21.864 116.698 20.8251C117.67 19.7862 118.976 19.2656 120.621 19.2656C122.207 19.2656 123.481 19.7773 124.446 20.8027C125.362 21.7992 125.823 23.0861 125.823 24.659ZM123.332 24.7349C123.332 23.7631 123.117 22.9297 122.688 22.2349C122.184 21.3948 121.467 20.9748 120.534 20.9748C119.569 20.9748 118.836 21.3948 118.332 22.2349C117.901 22.9297 117.688 23.7765 117.688 24.7774C117.688 25.7492 117.903 26.5826 118.332 27.2774C118.852 28.1175 119.576 28.5375 120.511 28.5375C121.428 28.5375 122.147 28.1108 122.665 27.2551C123.11 26.5469 123.332 25.7068 123.332 24.7349Z" fill="white"/>
<path d="M143.825 19.48L140.445 30.012H138.245L136.845 25.4386C136.49 24.2969 136.201 23.1619 135.976 22.0359H135.933C135.724 23.1932 135.436 24.3259 135.064 25.4386L133.577 30.012H131.352L128.174 19.48H130.642L131.863 24.4868C132.159 25.6709 132.402 26.7992 132.596 27.8671H132.64C132.819 26.9869 133.114 25.8653 133.531 24.5091L135.064 19.4822H137.021L138.49 24.4019C138.845 25.6017 139.134 26.7567 139.356 27.8694H139.423C139.585 26.7858 139.831 25.6307 140.156 24.4019L141.467 19.4822H143.825V19.48Z" fill="white"/>
<path d="M156.274 30.012H153.873V23.9796C153.873 22.1208 153.149 21.1914 151.696 21.1914C150.983 21.1914 150.408 21.4461 149.961 21.9577C149.519 22.4693 149.294 23.0726 149.294 23.7629V30.0097H146.893V22.4894C146.893 21.5645 146.863 20.5613 146.806 19.4755H148.916L149.029 21.1221H149.095C149.375 20.6105 149.792 20.1882 150.339 19.8509C150.99 19.4576 151.719 19.2588 152.516 19.2588C153.524 19.2588 154.363 19.576 155.03 20.2128C155.86 20.9925 156.274 22.1565 156.274 23.7026V30.012Z" fill="white"/>
<path d="M162.897 30.012H160.497V14.6475H162.897V30.012Z" fill="white"/>
<path d="M177.035 24.659C177.035 26.2787 176.561 27.6059 175.612 28.647C174.618 29.7172 173.298 30.2511 171.655 30.2511C170.067 30.2511 168.804 29.7395 167.865 28.7118C166.925 27.6863 166.455 26.3927 166.455 24.8332C166.455 23.2023 166.939 21.864 167.91 20.8251C168.882 19.7862 170.188 19.2656 171.831 19.2656C173.419 19.2656 174.691 19.7773 175.658 20.8027C176.574 21.7992 177.035 23.0861 177.035 24.659ZM174.542 24.7349C174.542 23.7631 174.327 22.9297 173.898 22.2349C173.396 21.3948 172.677 20.9748 171.746 20.9748C170.779 20.9748 170.046 21.3948 169.544 22.2349C169.113 22.9297 168.9 23.7765 168.9 24.7774C168.9 25.7492 169.116 26.5826 169.544 27.2774C170.064 28.1175 170.788 28.5375 171.723 28.5375C172.64 28.5375 173.357 28.1108 173.875 27.2551C174.322 26.5469 174.542 25.7068 174.542 24.7349Z" fill="white"/>
<path d="M188.657 30.0121H186.501L186.322 28.7989H186.256C185.518 29.7663 184.466 30.2511 183.101 30.2511C182.081 30.2511 181.256 29.9317 180.635 29.2971C180.071 28.7207 179.789 28.0035 179.789 27.1523C179.789 25.8654 180.339 24.8846 181.446 24.2054C182.551 23.5262 184.104 23.1933 186.105 23.209V23.0124C186.105 21.6249 185.358 20.9323 183.861 20.9323C182.796 20.9323 181.856 21.1937 181.045 21.7121L180.557 20.1749C181.561 19.5695 182.8 19.2656 184.262 19.2656C187.085 19.2656 188.502 20.7178 188.502 23.6223V27.5009C188.502 28.5532 188.554 29.391 188.657 30.0121ZM186.164 26.3927V24.7684C183.515 24.7238 182.191 25.432 182.191 26.8909C182.191 27.4405 182.342 27.8516 182.651 28.1264C182.961 28.4012 183.355 28.5375 183.825 28.5375C184.352 28.5375 184.844 28.3744 185.294 28.0505C185.745 27.7243 186.022 27.3109 186.125 26.8038C186.151 26.6898 186.164 26.5513 186.164 26.3927Z" fill="white"/>
<path d="M202.303 30.012H200.172L200.06 28.3207H199.993C199.313 29.6076 198.153 30.2511 196.524 30.2511C195.223 30.2511 194.139 29.7528 193.279 28.7564C192.42 27.7599 191.992 26.4663 191.992 24.8778C191.992 23.1731 192.457 21.7924 193.392 20.7379C194.297 19.7548 195.406 19.2633 196.726 19.2633C198.176 19.2633 199.191 19.7392 199.769 20.6932H199.815V14.6475H202.218V27.1746C202.218 28.2001 202.246 29.1451 202.303 30.012ZM199.815 25.5704V23.8143C199.815 23.5105 199.792 23.2647 199.748 23.0771C199.613 22.514 199.322 22.0404 198.88 21.6584C198.433 21.2763 197.894 21.0842 197.273 21.0842C196.377 21.0842 195.676 21.4305 195.161 22.1253C194.65 22.8201 194.391 23.7071 194.391 24.7907C194.391 25.8318 194.636 26.6763 195.129 27.3265C195.649 28.0191 196.35 28.3654 197.228 28.3654C198.016 28.3654 198.646 28.0772 199.125 27.4985C199.588 26.9646 199.815 26.3211 199.815 25.5704Z" fill="white"/>
<path d="M222.842 24.659C222.842 26.2787 222.367 27.6059 221.419 28.647C220.424 29.7172 219.109 30.2511 217.461 30.2511C215.878 30.2511 214.615 29.7395 213.671 28.7118C212.732 27.6863 212.262 26.3927 212.262 24.8332C212.262 23.2023 212.745 21.864 213.717 20.8251C214.689 19.7862 215.995 19.2656 217.642 19.2656C219.226 19.2656 220.502 19.7773 221.465 20.8027C222.381 21.7992 222.842 23.0861 222.842 24.659ZM220.353 24.7349C220.353 23.7631 220.138 22.9297 219.709 22.2349C219.203 21.3948 218.488 20.9748 217.553 20.9748C216.591 20.9748 215.857 21.3948 215.351 22.2349C214.92 22.9297 214.707 23.7765 214.707 24.7774C214.707 25.7492 214.922 26.5826 215.351 27.2774C215.871 28.1175 216.595 28.5375 217.53 28.5375C218.447 28.5375 219.168 28.1108 219.686 27.2551C220.129 26.5469 220.353 25.7068 220.353 24.7349Z" fill="white"/>
<path d="M235.754 30.012H233.355V23.9796C233.355 22.1208 232.631 21.1914 231.176 21.1914C230.463 21.1914 229.888 21.4461 229.443 21.9577C228.999 22.4693 228.777 23.0726 228.777 23.7629V30.0097H226.373V22.4894C226.373 21.5645 226.345 20.5613 226.288 19.4755H228.396L228.509 21.1221H228.575C228.857 20.6105 229.274 20.1882 229.819 19.8509C230.472 19.4576 231.199 19.2588 231.998 19.2588C233.004 19.2588 233.843 19.576 234.51 20.2128C235.342 20.9925 235.754 22.1565 235.754 23.7026V30.012Z" fill="white"/>
<path d="M251.916 21.2337H249.272V26.35C249.272 27.6503 249.741 28.3005 250.672 28.3005C251.102 28.3005 251.46 28.2647 251.742 28.191L251.804 29.9672C251.329 30.1414 250.706 30.2286 249.938 30.2286C248.99 30.2286 248.252 29.9471 247.718 29.384C247.182 28.821 246.916 27.8737 246.916 26.5444V21.2337H245.337V19.4799H246.916V17.5495L249.269 16.8569V19.4776H251.914V21.2337H251.916Z" fill="white"/>
<path d="M264.629 30.012H262.225V24.0244C262.225 22.1365 261.501 21.1914 260.051 21.1914C258.937 21.1914 258.176 21.7388 257.759 22.8335C257.688 23.0637 257.647 23.3452 257.647 23.6758V30.0098H255.248V14.6475H257.647V20.9948H257.693C258.449 19.8397 259.533 19.2633 260.938 19.2633C261.932 19.2633 262.755 19.5806 263.408 20.2173C264.221 21.0104 264.629 22.1901 264.629 23.7496V30.012Z" fill="white"/>
<path d="M277.743 24.248C277.743 24.668 277.711 25.021 277.654 25.3092H270.452C270.484 26.3503 270.828 27.1435 271.494 27.6931C272.104 28.1846 272.89 28.4304 273.852 28.4304C274.918 28.4304 275.889 28.265 276.765 27.9321L277.141 29.5586C276.116 29.9921 274.911 30.2088 273.515 30.2088C271.843 30.2088 270.525 29.7284 269.572 28.7677C268.614 27.807 268.14 26.5179 268.14 24.9003C268.14 23.3118 268.582 21.9892 269.473 20.9347C270.404 19.8086 271.662 19.2456 273.25 19.2456C274.803 19.2456 275.983 19.8086 276.781 20.9347C277.425 21.8283 277.743 22.9343 277.743 24.248ZM275.452 23.6425C275.47 22.9477 275.312 22.3489 274.987 21.844C274.569 21.1938 273.935 20.8676 273.075 20.8676C272.292 20.8676 271.652 21.1849 271.164 21.8216C270.766 22.3288 270.53 22.9343 270.452 23.6425H275.452Z" fill="white"/>
</svg>
