<svg width="20" height="12" viewBox="0 0 20 12" fill="none" xmlns="http://www.w3.org/2000/svg">
<path fill-rule="evenodd" clip-rule="evenodd" d="M15.2295 0.023981C15.3126 -0.00271784 15.4012 -0.00721235 15.4865 0.0109448C15.5719 0.0291019 15.651 0.0692784 15.716 0.127481L19.8335 3.81698C19.8994 3.87598 19.9485 3.9514 19.9757 4.03555C20.0029 4.1197 20.0073 4.20956 19.9885 4.29598L18.812 9.68748C18.7925 9.77714 18.7486 9.85969 18.6853 9.9261C18.622 9.9925 18.5416 10.0402 18.453 10.064L13.159 11.483C13.0748 11.5055 12.9861 11.5057 12.9019 11.4834C12.8176 11.4611 12.7406 11.4172 12.6785 11.356L10.3985 9.10598C10.3041 9.01276 10.2506 8.88585 10.2497 8.75316C10.2489 8.62048 10.3008 8.4929 10.394 8.39848C10.4872 8.30406 10.6141 8.25055 10.7468 8.2497C10.8795 8.24886 11.0071 8.30076 11.1015 8.39398L13.1765 10.443L17.9 9.17698L18.9495 4.36698L15.2625 1.06398L10.4845 2.60048L9.9755 4.15548C9.95508 4.21789 9.92256 4.27567 9.87981 4.32551C9.83707 4.37536 9.78492 4.4163 9.72635 4.44599C9.66778 4.47568 9.60393 4.49354 9.53846 4.49856C9.47298 4.50358 9.40716 4.49565 9.34475 4.47523C9.28234 4.45481 9.22456 4.4223 9.17471 4.37955C9.12487 4.3368 9.08393 4.28465 9.05424 4.22608C9.02455 4.16751 9.00669 4.10366 9.00167 4.03819C8.99665 3.97271 9.00458 3.90689 9.025 3.84448L9.613 2.04698C9.63767 1.97196 9.67975 1.90386 9.73581 1.84824C9.79186 1.79262 9.86029 1.75106 9.9355 1.72698L15.2295 0.023981Z" fill="#666666"/>
<path fill-rule="evenodd" clip-rule="evenodd" d="M14.361 5.01247C14.4903 5.04192 14.6026 5.12151 14.6732 5.23375C14.7438 5.34599 14.7669 5.48168 14.7375 5.61097L13.4875 11.111C13.457 11.2392 13.3772 11.3502 13.2653 11.4198C13.1534 11.4895 13.0185 11.5121 12.89 11.4828C12.7616 11.4536 12.6498 11.3748 12.5791 11.2636C12.5084 11.1524 12.4845 11.0177 12.5125 10.889L13.7625 5.38897C13.7919 5.25968 13.8715 5.14739 13.9838 5.07678C14.096 5.00617 14.2317 4.98304 14.361 5.01247Z" fill="#666666"/>
<path fill-rule="evenodd" clip-rule="evenodd" d="M9.869 1.92647C9.95476 1.82539 10.0771 1.7625 10.2092 1.75163C10.3413 1.74075 10.4724 1.78278 10.5735 1.86847L14.206 4.94847L17.6185 4.01747C17.7465 3.98259 17.883 3.99998 17.9982 4.0658C18.1133 4.13163 18.1976 4.2405 18.2325 4.36847C18.2674 4.49643 18.25 4.63301 18.1842 4.74816C18.1183 4.86331 18.0095 4.94759 17.8815 4.98247L14.215 5.98247C14.1367 6.00385 14.0543 6.00582 13.975 5.98823C13.8957 5.97063 13.8219 5.93399 13.76 5.88147L9.927 2.63147C9.87688 2.589 9.83562 2.53707 9.80557 2.47865C9.77553 2.42023 9.7573 2.35646 9.75191 2.29099C9.74652 2.22551 9.75409 2.15962 9.77418 2.09708C9.79427 2.03453 9.82649 1.97656 9.869 1.92647ZM3.371 2.63847C3.43402 2.57821 3.51171 2.53547 3.59635 2.51451C3.68099 2.49355 3.76964 2.49508 3.8535 2.51897L7.9885 3.69947C8.07257 3.7234 8.14891 3.76896 8.20988 3.8316C8.27085 3.89425 8.31434 3.97178 8.336 4.05647L9.4845 8.54247C9.50741 8.63183 9.50515 8.72579 9.47797 8.81394C9.45079 8.9021 9.39975 8.98102 9.3305 9.04197L6.115 11.875C6.05214 11.9305 5.97633 11.9693 5.89455 11.9878C5.81277 12.0063 5.72764 12.004 5.647 11.981L1.5115 10.8C1.42873 10.7763 1.35347 10.7316 1.29303 10.6703C1.23259 10.609 1.189 10.5331 1.1665 10.45L0.0174996 6.19997C-0.00593005 6.11317 -0.00552448 6.02167 0.0186733 5.93508C0.0428711 5.8485 0.0899659 5.77004 0.155 5.70797L3.371 2.63847ZM3.8545 3.55947L1.06 6.22597L2.057 9.91597L5.658 10.944L8.4395 8.49397L7.438 4.58247L3.8545 3.55947Z" fill="#666666"/>
<path fill-rule="evenodd" clip-rule="evenodd" d="M6.8535 5.14645C6.94724 5.24022 6.99989 5.36737 6.99989 5.49995C6.99989 5.63254 6.94724 5.75969 6.8535 5.85345L4.8535 7.85345C4.79091 7.91596 4.71285 7.96075 4.62729 7.98323C4.54173 8.00572 4.45174 8.00511 4.3665 7.98145L0.3665 6.87045C0.302621 6.85344 0.242749 6.82393 0.190348 6.78364C0.137948 6.74334 0.0940586 6.69305 0.06122 6.63567C0.0283814 6.5783 0.00724524 6.51499 -0.000965317 6.44939C-0.00917587 6.3838 -0.00429808 6.31723 0.0133861 6.25353C0.0310702 6.18984 0.0612096 6.13028 0.10206 6.07831C0.142911 6.02634 0.193662 5.98298 0.251378 5.95075C0.309093 5.91852 0.372627 5.89805 0.438303 5.89054C0.503979 5.88302 0.570495 5.8886 0.634 5.90695L4.353 6.93995L6.1465 5.14645C6.24026 5.05272 6.36742 5.00006 6.5 5.00006C6.63258 5.00006 6.75974 5.05272 6.8535 5.14645Z" fill="#666666"/>
<path fill-rule="evenodd" clip-rule="evenodd" d="M4.379 7.01499C4.50756 6.98292 4.64359 7.00319 4.75722 7.07135C4.87084 7.1395 4.95277 7.24997 4.985 7.37849L5.985 11.3785C6.01616 11.5067 5.99534 11.6421 5.92708 11.7551C5.85883 11.8681 5.74867 11.9495 5.62064 11.9815C5.4926 12.0136 5.35708 11.9938 5.24363 11.9263C5.13017 11.8589 5.04799 11.7493 5.015 11.6215L4.015 7.62149C3.99905 7.55777 3.99582 7.49152 4.00549 7.42655C4.01515 7.36157 4.03753 7.29914 4.07133 7.24282C4.10513 7.18649 4.14971 7.13738 4.2025 7.09829C4.25529 7.0592 4.31527 7.03089 4.379 7.01499Z" fill="#666666"/>
</svg>
